<?xml version="1.0" encoding="utf-8"?>
<!-- Generator: Adobe Illustrator 24.1.3, SVG Export Plug-In . SVG Version: 6.00 Build 0)  -->
<svg version="1.1" id="Capa_1" xmlns="http://www.w3.org/2000/svg" xmlns:xlink="http://www.w3.org/1999/xlink" x="0px" y="0px"
	 viewBox="0 0 154.9 62" style="enable-background:new 0 0 154.9 62;" xml:space="preserve">
<style type="text/css">
	.st0{fill:#FFFFFF;}
	.st1{font-family:'Gotham-Bold';}
	.st2{font-size:10.442px;}
	.st3{fill:url(#SVGID_1_);}
	.st4{fill:url(#SVGID_2_);}
</style>
<text transform="matrix(1 0 0 1 122.575 55.6901)" class="st0 st1 st2">AÑ</text>
<text transform="matrix(1 0 0 1 138.8592 55.6901)" class="st0 st1 st2">O</text>
<text transform="matrix(1 0 0 1 147.573 55.6901)" class="st0 st1 st2">S</text>
<path class="st0" d="M97.9,53l-3.8-6.6h1l3.4,6.1l6.6-6.1h1.2l-7.3,6.9l3.9,7h-1l-3.5-6.5L91.4,60h-1.2L97.9,53z"/>
<path class="st0" d="M108.1,46.3h0.9l2.2,12.8l9-12.8h1.1l-9.9,13.9h-0.7L108.1,46.3z"/>
<text transform="matrix(1 0 0 1 69.3016 55.6901)" class="st0 st1 st2">MIS</text>
<g>
	<linearGradient id="SVGID_1_" gradientUnits="userSpaceOnUse" x1="52.0905" y1="123.303" x2="34.668" y2="-46.0171">
		<stop  offset="1.000000e-02" style="stop-color:#C6C6C6"/>
		<stop  offset="1.000000e-02" style="stop-color:#BABABA"/>
		<stop  offset="3.000000e-02" style="stop-color:#9B9B9B"/>
		<stop  offset="6.000000e-02" style="stop-color:#828282"/>
		<stop  offset="8.000000e-02" style="stop-color:#6E6E6E"/>
		<stop  offset="0.11" style="stop-color:#616161"/>
		<stop  offset="0.14" style="stop-color:#5A5A5A"/>
		<stop  offset="0.18" style="stop-color:#575757"/>
		<stop  offset="0.28" style="stop-color:#6A6A6A"/>
		<stop  offset="0.39" style="stop-color:#787878"/>
		<stop  offset="0.47" style="stop-color:#7B7B7B"/>
		<stop  offset="0.48" style="stop-color:#7F7F7F"/>
		<stop  offset="0.6" style="stop-color:#A5A5A5"/>
		<stop  offset="0.69" style="stop-color:#BEBEBE"/>
		<stop  offset="0.74" style="stop-color:#C6C6C6"/>
		<stop  offset="0.78" style="stop-color:#C1C1C1"/>
		<stop  offset="0.83" style="stop-color:#AEAEAE"/>
		<stop  offset="0.9" style="stop-color:#909090"/>
		<stop  offset="0.97" style="stop-color:#686868"/>
		<stop  offset="1" style="stop-color:#575757"/>
	</linearGradient>
	<path class="st3" d="M67.7,5.4c0.9-0.7,1.8-1.4,2.8-1.8c4.8-2.2,8.4,2.1,8.3,6.3c2.6-0.8,2.3-2.7,1.5-4c-2.3-3.7-7.2-4.3-11.6-2.5
		c-1,0.4-1.9,0.9-2.8,1.4C58.1,2.1,49.8,1,41.6,1.6C26.1,2.8,12.1,10.9,8,25.6c-2,7.8,0.5,16.6,9.7,17.1c0.7,2.8,1.9,5.4,3.4,7.8
		c-7,1-14-0.6-16-8.3c-2.5,0.8-2,3.1-1,4.3c4,5,10.7,6,17.6,4.9c7.6,10.5,21.5,10.7,28.3,2.9c0.7-0.8,0.5-1.3-0.4-0.3
		c-6.4,7.1-19.3,6.8-25.3-3c1.4-0.3,2.9-0.7,4.2-1.2c5.1-1.8,9.9-4.6,14-8.1c9.8,5.3,20.9,3.8,27.3-2.5c5.1-5,4-13.8-5.9-16.5
		c4.5-0.4,8.3-1.7,10-3.1C79.8,14.4,75.2,8.4,67.7,5.4z M30.1,16.5c10.5-11.2,17-4.6,12,7.1c-2.7,6.4-8.4,14.9-18.5,17.4
		c-0.9,0.2-1.7,0.4-2.6,0.5C20.2,33.8,23.6,23.4,30.1,16.5z M27.9,48.9c-1.4,0.5-2.8,0.9-4.2,1.2c-1.3-2.3-2.1-4.9-2.4-7.5
		c1.5-0.2,3-0.6,4.5-1.1c8.4-2.8,14.6-10.6,17.5-17.8c6.1-15-5.6-20-17.8-7.7c-6.3,6.4-8.9,15.7-8.7,21.3c0.1,1.3,0.2,2.6,0.5,3.9
		c-5-1.7-5.7-8-4.6-13.6C15,14.8,27.6,4.3,41.7,2.9C49.5,2.1,57.4,3,64.8,5.5c-5.1,3.5-8.6,9.1-11.6,14.1l-2.9,4.9
		C43.8,36,39,44.5,27.9,48.9z M66.6,36.3c-4.4,8-14.7,9.2-23.4,4.7c4.1-3.7,7.7-8.1,10.4-13l2.9-5.1C67.6,22.8,69.7,30.5,66.6,36.3z
		 M70.6,17.9c-2,2.2-6.6,4.3-13.4,3.7l3.1-5.9c1.9-3.5,3.8-7,6.5-9.5C73,8.7,74.2,13.8,70.6,17.9z"/>
	<linearGradient id="SVGID_2_" gradientUnits="userSpaceOnUse" x1="110.0929" y1="73.9355" x2="101.943" y2="-5.2691">
		<stop  offset="1.000000e-02" style="stop-color:#C6C6C6"/>
		<stop  offset="1.000000e-02" style="stop-color:#BABABA"/>
		<stop  offset="3.000000e-02" style="stop-color:#9B9B9B"/>
		<stop  offset="6.000000e-02" style="stop-color:#828282"/>
		<stop  offset="8.000000e-02" style="stop-color:#6E6E6E"/>
		<stop  offset="0.11" style="stop-color:#616161"/>
		<stop  offset="0.14" style="stop-color:#5A5A5A"/>
		<stop  offset="0.18" style="stop-color:#575757"/>
		<stop  offset="0.28" style="stop-color:#6A6A6A"/>
		<stop  offset="0.39" style="stop-color:#787878"/>
		<stop  offset="0.47" style="stop-color:#7B7B7B"/>
		<stop  offset="0.48" style="stop-color:#7F7F7F"/>
		<stop  offset="0.6" style="stop-color:#A5A5A5"/>
		<stop  offset="0.69" style="stop-color:#BEBEBE"/>
		<stop  offset="0.74" style="stop-color:#C6C6C6"/>
		<stop  offset="0.78" style="stop-color:#C1C1C1"/>
		<stop  offset="0.83" style="stop-color:#AEAEAE"/>
		<stop  offset="0.9" style="stop-color:#909090"/>
		<stop  offset="0.97" style="stop-color:#686868"/>
		<stop  offset="1" style="stop-color:#575757"/>
	</linearGradient>
	<path class="st4" d="M135,30.3c-1.8,3.1-4.2,5.8-7,8c-3.4,2.5-7.7,3.9-10.5,2.2c-1.8-1.1-1.7-3.7-0.5-6.5
		c5.5-0.9,11.9-2.9,14.1-6.5c2.5-3.8-0.1-5.9-3.7-5.9c-6.3,0-11.8,4.7-14.3,10.1c-0.6,1.4-0.9,2.6-1,3.8c-1.1,1.3-2.3,2.5-3.6,3.5
		c-2.5,2-5.2,3.5-2.9-0.5l2.6-4.4c2.8-5-0.2-7.1-1.5-8.1l-3-2.2c1-2.2,1.9-4.5,2.5-6.9c-2.6,0-6.7,4.6-3.6,7.1
		c-1.6,3.4-3.5,6.7-5.7,9.7c-1.4,1.7-2.9,3.3-4.7,4.7c-3.4,2.5-7.7,3.9-10.5,2.2C80,39.5,80,36.9,81.2,34c5.5-0.9,11.9-2.9,14.1-6.5
		c2.5-3.8-0.1-5.9-3.7-5.9c-6.3,0-11.8,4.7-14.3,10.1c-2.5,5.6-0.1,9.5,3.1,10.3c4.6,1.3,8.6-0.3,12.1-3.1c2.5-2,4.7-4.4,6.4-7.2
		c1.6-2.3,3.1-4.7,4.4-7.2l1.1,0.8c2.2,1.6,1.8,3,0.8,4.9l-2.5,4.5c-3.2,5.4-1.4,7.8,0.5,7.8c2.3,0,4.9-1.9,7.9-5
		c0.3-0.3,0.6-0.6,0.9-1c0.1,3,2,4.9,4.2,5.5c4.6,1.3,8.5-0.3,12.1-3.1c2.9-2.3,5.4-5.2,7.2-8.4C135.8,30.1,135.3,29.8,135,30.3z
		 M119,30.2c2.7-4.4,6.1-7.8,7.8-7.8c1.4,0,1.3,1.8-0.2,4.4c-2.1,3.4-5.5,5.7-9.4,6.5C117.8,32.3,118.4,31.3,119,30.2z M83.3,30.2
		c2.7-4.4,6.1-7.8,7.8-7.8c1.4,0,1.3,1.8-0.2,4.4c-2.1,3.4-5.5,5.7-9.4,6.5C82,32.3,82.6,31.3,83.3,30.2z"/>
</g>
</svg>
