<?xml version="1.0" encoding="utf-8"?>
<!-- Generator: Adobe Illustrator 24.1.3, SVG Export Plug-In . SVG Version: 6.00 Build 0)  -->
<svg version="1.1" id="Capa_1" xmlns="http://www.w3.org/2000/svg" xmlns:xlink="http://www.w3.org/1999/xlink" x="0px" y="0px"
	 viewBox="0 0 204.3 79.6" style="enable-background:new 0 0 204.3 79.6;" xml:space="preserve">
<style type="text/css">
	.st0{fill:#959494;}
	.st1{font-family:'Gotham-Bold';}
	.st2{font-size:14.14px;}
	.st3{fill:url(#SVGID_1_);}
	.st4{fill:url(#SVGID_2_);}
	.st5{fill:url(#SVGID_3_);}
	.st6{fill:url(#SVGID_4_);}
</style>
<text transform="matrix(1 0 0 1 161.55 73.5)" class="st0 st1 st2">AÑ</text>
<text transform="matrix(1 0 0 1 183.6 73.5)" class="st0 st1 st2">O</text>
<text transform="matrix(1 0 0 1 195.4 73.5)" class="st0 st1 st2">S</text>
<path class="st0" d="M128.1,69.8l-5.1-9h1.3l4.5,8.3l8.9-8.3h1.6l-9.9,9.3l5.3,9.4h-1.3l-4.8-8.8l-9.4,8.7h-1.6L128.1,69.8z"/>
<path class="st0" d="M141.9,60.8h1.2l3,17.3l12.2-17.3h1.5l-13.4,18.8h-1L141.9,60.8z"/>
<text transform="matrix(1 0 0 1 89.41 73.5)" class="st0 st1 st2">MIS</text>
<linearGradient id="SVGID_1_" gradientUnits="userSpaceOnUse" x1="61.7614" y1="92.8596" x2="52.8714" y2="6.5496" gradientTransform="matrix(1 0 0 -1 -4.02 75.8098)">
	<stop  offset="1.000000e-02" style="stop-color:#C6C6C6"/>
	<stop  offset="1.000000e-02" style="stop-color:#BABABA"/>
	<stop  offset="3.000000e-02" style="stop-color:#9B9B9B"/>
	<stop  offset="6.000000e-02" style="stop-color:#828282"/>
	<stop  offset="8.000000e-02" style="stop-color:#6E6E6E"/>
	<stop  offset="0.11" style="stop-color:#616161"/>
	<stop  offset="0.14" style="stop-color:#5A5A5A"/>
	<stop  offset="0.18" style="stop-color:#575757"/>
	<stop  offset="0.28" style="stop-color:#6A6A6A"/>
	<stop  offset="0.39" style="stop-color:#787878"/>
	<stop  offset="0.47" style="stop-color:#7B7B7B"/>
	<stop  offset="0.48" style="stop-color:#7F7F7F"/>
	<stop  offset="0.6" style="stop-color:#A5A5A5"/>
	<stop  offset="0.69" style="stop-color:#BEBEBE"/>
	<stop  offset="0.74" style="stop-color:#C6C6C6"/>
	<stop  offset="0.78" style="stop-color:#C1C1C1"/>
	<stop  offset="0.83" style="stop-color:#AEAEAE"/>
	<stop  offset="0.9" style="stop-color:#909090"/>
	<stop  offset="0.97" style="stop-color:#686868"/>
	<stop  offset="1" style="stop-color:#575757"/>
</linearGradient>
<path class="st3" d="M84.8,4.5c1.2-0.8,2.5-1.4,3.8-1.9c5.9-2.5,12.5-1.6,15.7,3.3c1.2,1.8,1.5,4.4-2,5.5c0.1-5.6-4.7-11.4-11.2-8.5
	c-1.4,0.6-2.7,1.5-3.8,2.5c10.2,4.1,16.3,12.2,8.3,19.2c-2.3,2-7.4,3.7-13.5,4.3c13.3,3.6,14.9,15.6,8,22.4
	c-8.8,8.6-23.7,10.6-37,3.4c-5.6,4.8-12,8.6-18.9,11c-1.9,0.6-3.8,1.2-5.8,1.6c8.2,13.3,25.6,13.8,34.3,4.1c1.2-1.3,1.5-0.6,0.5,0.4
	c-9.1,10.6-28,10.3-38.3-3.9C15.6,69.3,6.6,68,1.1,61.2c-1.4-1.7-2-4.8,1.3-5.8C5.1,65.7,14.7,68,24.1,66.6
	c-2.1-3.3-3.6-6.8-4.6-10.6C7.1,55.3,3.7,43.3,6.4,32.8c5.5-20,24.5-31,45.4-32.6C63-0.6,74.3,0.9,84.8,4.5z M27.6,65.9
	c1.9-0.4,3.8-1,5.7-1.7c15.1-5.8,21.6-17.4,30.4-33l3.9-6.6c4.1-6.8,8.8-14.4,15.7-19.1C73.3,2.1,62.6,0.9,52,2
	C33,3.9,15.9,18.1,12.6,35.5c-1.4,7.5-0.5,16.1,6.3,18.4c-0.3-1.7-0.6-3.5-0.6-5.3C18,41,21.5,28.4,30,19.7
	C46.6,3.1,62.4,9.8,54.2,30.2c-3.9,9.8-12.4,20.2-23.7,24c-2,0.7-4,1.2-6.1,1.5C24.8,59.3,26,62.7,27.6,65.9z M24.1,54.3
	c1.2-0.1,2.4-0.3,3.5-0.6c13.6-3.4,21.3-14.9,25-23.6c6.8-15.8-2-24.8-16.3-9.6C27.6,29.8,22.9,43.9,24.1,54.3z M72,29.1L68.1,36
	c-3.7,6.6-8.4,12.5-14.1,17.6c11.8,6.1,25.7,4.4,31.6-6.4C90,39.4,87.1,28.9,72,29.1z M86,6.5c-3.6,3.4-6.2,8.2-8.8,12.9l-4.2,8
	c9.2,0.9,15.5-2,18.1-5C96.1,16.7,94.4,9.9,86,6.5z"/>
<linearGradient id="SVGID_2_" gradientUnits="userSpaceOnUse" x1="124.3171" y1="86.4201" x2="115.4271" y2="0.1101" gradientTransform="matrix(1 0 0 -1 -4.02 75.8098)">
	<stop  offset="1.000000e-02" style="stop-color:#C6C6C6"/>
	<stop  offset="1.000000e-02" style="stop-color:#BABABA"/>
	<stop  offset="3.000000e-02" style="stop-color:#9B9B9B"/>
	<stop  offset="6.000000e-02" style="stop-color:#828282"/>
	<stop  offset="8.000000e-02" style="stop-color:#6E6E6E"/>
	<stop  offset="0.11" style="stop-color:#616161"/>
	<stop  offset="0.14" style="stop-color:#5A5A5A"/>
	<stop  offset="0.18" style="stop-color:#575757"/>
	<stop  offset="0.28" style="stop-color:#6A6A6A"/>
	<stop  offset="0.39" style="stop-color:#787878"/>
	<stop  offset="0.47" style="stop-color:#7B7B7B"/>
	<stop  offset="0.48" style="stop-color:#7F7F7F"/>
	<stop  offset="0.6" style="stop-color:#A5A5A5"/>
	<stop  offset="0.69" style="stop-color:#BEBEBE"/>
	<stop  offset="0.74" style="stop-color:#C6C6C6"/>
	<stop  offset="0.78" style="stop-color:#C1C1C1"/>
	<stop  offset="0.83" style="stop-color:#AEAEAE"/>
	<stop  offset="0.9" style="stop-color:#909090"/>
	<stop  offset="0.97" style="stop-color:#686868"/>
	<stop  offset="1" style="stop-color:#575757"/>
</linearGradient>
<path class="st4" d="M119.7,27.4c4.8,0,8.3,2.9,5,8c-3,4.8-11.7,7.5-19.1,8.8c-1.6,3.8-1.7,7.3,0.7,8.8c3.8,2.3,9.6,0.4,14.2-3
	c3.8-3,7-6.7,9.5-10.9c0.4-0.7,1.1-0.3,0.7,0.3c-2.5,4.4-5.8,8.3-9.7,11.4c-4.8,3.7-10.1,5.9-16.3,4.2c-4.4-1.2-7.7-6.4-4.2-14
	C103.7,33.8,111.2,27.4,119.7,27.4z M108.3,39c-0.9,1.4-1.7,2.8-2.4,4.2c5.3-1,9.9-4.2,12.7-8.8c2-3.4,2.1-5.9,0.3-5.9
	C116.6,28.5,112.1,33,108.3,39z"/>
<linearGradient id="SVGID_3_" gradientUnits="userSpaceOnUse" x1="148.3513" y1="83.9396" x2="139.4613" y2="-2.3604" gradientTransform="matrix(1 0 0 -1 -4.02 75.8098)">
	<stop  offset="1.000000e-02" style="stop-color:#C6C6C6"/>
	<stop  offset="1.000000e-02" style="stop-color:#BABABA"/>
	<stop  offset="3.000000e-02" style="stop-color:#9B9B9B"/>
	<stop  offset="6.000000e-02" style="stop-color:#828282"/>
	<stop  offset="8.000000e-02" style="stop-color:#6E6E6E"/>
	<stop  offset="0.11" style="stop-color:#616161"/>
	<stop  offset="0.14" style="stop-color:#5A5A5A"/>
	<stop  offset="0.18" style="stop-color:#575757"/>
	<stop  offset="0.28" style="stop-color:#6A6A6A"/>
	<stop  offset="0.39" style="stop-color:#787878"/>
	<stop  offset="0.47" style="stop-color:#7B7B7B"/>
	<stop  offset="0.48" style="stop-color:#7F7F7F"/>
	<stop  offset="0.6" style="stop-color:#A5A5A5"/>
	<stop  offset="0.69" style="stop-color:#BEBEBE"/>
	<stop  offset="0.74" style="stop-color:#C6C6C6"/>
	<stop  offset="0.78" style="stop-color:#C1C1C1"/>
	<stop  offset="0.83" style="stop-color:#AEAEAE"/>
	<stop  offset="0.9" style="stop-color:#909090"/>
	<stop  offset="0.97" style="stop-color:#686868"/>
	<stop  offset="1" style="stop-color:#575757"/>
</linearGradient>
<path class="st5" d="M134.8,45.2l3.4-6.1c1.3-2.6,1.8-4.4-1.1-6.6l-1.5-1.1c-2.8,5.3-6.1,10.4-9.9,15c-0.6,0.7-1.1,0.1-0.5-0.5
	c3.6-4.8,6.8-10,9.4-15.5c-4.1-3.3,1.4-9.5,4.9-9.5c-0.8,3.2-2,6.3-3.4,9.4l4,3c1.8,1.3,5.8,4.3,2,11l-3.5,6
	c-3.1,5.4,0.4,3.5,3.9,0.7c4-3.3,7.4-7.4,10-11.8c0.4-0.7,1.1-0.3,0.7,0.3c-1.9,3.4-4.3,6.5-7,9.4c-4.1,4.2-7.5,6.8-10.7,6.8
	C132.9,55.7,130.4,52.5,134.8,45.2z"/>
<linearGradient id="SVGID_4_" gradientUnits="userSpaceOnUse" x1="172.2416" y1="81.4796" x2="163.3616" y2="-4.8204" gradientTransform="matrix(1 0 0 -1 -4.02 75.8098)">
	<stop  offset="1.000000e-02" style="stop-color:#C6C6C6"/>
	<stop  offset="1.000000e-02" style="stop-color:#BABABA"/>
	<stop  offset="3.000000e-02" style="stop-color:#9B9B9B"/>
	<stop  offset="6.000000e-02" style="stop-color:#828282"/>
	<stop  offset="8.000000e-02" style="stop-color:#6E6E6E"/>
	<stop  offset="0.11" style="stop-color:#616161"/>
	<stop  offset="0.14" style="stop-color:#5A5A5A"/>
	<stop  offset="0.18" style="stop-color:#575757"/>
	<stop  offset="0.28" style="stop-color:#6A6A6A"/>
	<stop  offset="0.39" style="stop-color:#787878"/>
	<stop  offset="0.47" style="stop-color:#7B7B7B"/>
	<stop  offset="0.48" style="stop-color:#7F7F7F"/>
	<stop  offset="0.6" style="stop-color:#A5A5A5"/>
	<stop  offset="0.69" style="stop-color:#BEBEBE"/>
	<stop  offset="0.74" style="stop-color:#C6C6C6"/>
	<stop  offset="0.78" style="stop-color:#C1C1C1"/>
	<stop  offset="0.83" style="stop-color:#AEAEAE"/>
	<stop  offset="0.9" style="stop-color:#909090"/>
	<stop  offset="0.97" style="stop-color:#686868"/>
	<stop  offset="1" style="stop-color:#575757"/>
</linearGradient>
<path class="st6" d="M168.1,27.4c4.8,0,8.3,2.9,4.9,8c-3,4.8-11.7,7.5-19.1,8.8c-1.6,3.8-1.7,7.3,0.7,8.8c3.8,2.3,9.6,0.4,14.2-3
	c3.8-3,7-6.7,9.5-10.9c0.4-0.7,1.1-0.3,0.7,0.3c-2.5,4.4-5.8,8.3-9.7,11.4c-4.8,3.7-10.1,6-16.4,4.2c-4.4-1.2-7.7-6.4-4.2-14
	C152.1,33.8,159.6,27.4,168.1,27.4z M156.8,39c-0.9,1.4-1.7,2.8-2.4,4.2c5.3-1,9.9-4.2,12.7-8.8c2-3.4,2.1-5.9,0.3-5.9
	C165,28.5,160.5,33,156.8,39z"/>
</svg>
